<?xml version="1.0" encoding="UTF-8" standalone="no"?>
<svg width="570px" height="776px" viewBox="0 0 570 776" version="1.1" xmlns="http://www.w3.org/2000/svg" xmlns:xlink="http://www.w3.org/1999/xlink" xmlns:sketch="http://www.bohemiancoding.com/sketch/ns">
    <!-- Generator: Sketch 3.4 (15575) - http://www.bohemiancoding.com/sketch -->
    <title>sparks-logo-outline</title>
    <desc>Created with Sketch.</desc>
    <defs></defs>
    <g id="Exports-v2" stroke="none" stroke-width="1" fill="none" fill-rule="evenodd" sketch:type="MSPage">
        <g id="sparks-logo-outline" sketch:type="MSLayerGroup" transform="translate(0.000000, -2.000000)" fill="#444444">
            <path d="M270,99.7480963 L540.003514,219.771454 L540.126551,561.886986 L300,721.93874 L300,680.251904 L30.0010494,560.287167 L30.0380303,218.000274 L269.999998,57.949585 L270,99.7480963 Z M300,1.97224362 L0,201.972244 L0,579.748096 L270,699.645279 L270,778.027756 L570,578.027756 L570,200.251904 L300,80.2957395 L300,1.97224362 Z" id="Shape" sketch:type="MSShapeGroup"></path>
            <path d="M381.213203,375 L264.638277,375 L389.048126,250.606602 L399.654728,240 L378.441525,218.786797 L367.834923,229.393398 L192.228321,405 L308.790218,404.996578 L184.393398,529.393398 L173.786797,540 L195,561.213203 L205.606602,550.606602 L381.213203,375 Z" id="Shape" sketch:type="MSShapeGroup"></path>
            <path d="M382.160674,256.626122 C354.905715,236.737309 321.323555,225 285,225 C193.873016,225 120,298.873016 120,390 C120,434.746274 137.811709,475.3324 166.731772,505.055024 L187.947419,483.839377 C164.455157,459.547802 150,426.461992 150,390 C150,315.441559 210.441559,255 285,255 C313.024238,255 339.054074,263.539052 360.629574,278.157222 L382.160674,256.626122 Z M404.738112,276.475092 C432.790633,306.053123 450,346.01683 450,390 C450,481.126984 376.126984,555 285,555 C249.447581,555 216.521395,543.755759 189.583685,524.629519 L211.171224,503.041979 C232.387654,516.926869 257.751037,525 285,525 C359.558441,525 420,464.558441 420,390 C420,354.301175 406.143618,321.838682 383.515768,297.697435 L404.738112,276.475092 Z" id="Shape" sketch:type="MSShapeGroup"></path>
        </g>
    </g>
</svg>