<?xml version="1.0" encoding="UTF-8" standalone="no"?>
<svg width="190px" height="260px" viewBox="0 0 190 260" version="1.1" xmlns="http://www.w3.org/2000/svg" xmlns:xlink="http://www.w3.org/1999/xlink" xmlns:sketch="http://www.bohemiancoding.com/sketch/ns">
    <!-- Generator: Sketch 3.4 (15575) - http://www.bohemiancoding.com/sketch -->
    <title>sparks-logo-outline</title>
    <desc>Created with Sketch.</desc>
    <defs></defs>
    <g id="Exports-v2" stroke="none" stroke-width="1" fill="none" fill-rule="evenodd" sketch:type="MSPage">
        <g id="Icon-Outline-Copy" sketch:type="MSArtboardGroup" transform="translate(-105.000000, -70.000000)" fill="#444444">
            <g id="sparks-logo-outline" sketch:type="MSLayerGroup" transform="translate(105.000000, 70.000000)">
                <path d="M90,33.2493654 L180.001171,73.2571515 L180.042184,187.295662 L100,240.646247 L100,226.750635 L10.0003498,186.762389 L10.0126768,72.666758 L89.9999993,19.3165283 L90,33.2493654 Z M100,0.657414541 L0,67.3240812 L0,193.249365 L90,233.215093 L90,259.342585 L190,192.675919 L190,66.7506346 L100,26.7652465 L100,0.657414541 Z" id="Shape" sketch:type="MSShapeGroup"></path>
                <path d="M127.071068,125 L88.212759,125 L129.682709,83.5355339 L133.218243,80 L126.147175,72.9289322 L122.611641,76.4644661 L64.076107,135 L102.930073,134.998859 L61.4644661,176.464466 L57.9289322,180 L65,187.071068 L68.5355339,183.535534 L127.071068,125 Z" id="Shape" sketch:type="MSShapeGroup"></path>
                <path d="M127.386891,85.5420407 C118.301905,78.9124363 107.107852,75 95,75 C64.6243388,75 40,99.6243388 40,130 C40,144.915425 45.9372364,158.444133 55.5772575,168.351675 L62.6491397,161.279792 C54.8183856,153.182601 50,142.153997 50,130 C50,105.147186 70.1471863,85 95,85 C104.341413,85 113.018025,87.8463507 120.209858,92.7190741 L127.386891,85.5420407 Z M134.912704,92.1583639 C144.263544,102.017708 150,115.338943 150,130 C150,160.375661 125.375661,185 95,185 C83.1491936,185 72.1737983,181.25192 63.1945616,174.876506 L70.390408,167.68066 C77.4625515,172.308956 85.9170123,175 95,175 C119.852814,175 140,154.852814 140,130 C140,118.100392 135.381206,107.279561 127.838589,99.2324784 L134.912704,92.1583639 Z" id="Shape" sketch:type="MSShapeGroup"></path>
            </g>
        </g>
    </g>
</svg>